<?xml version="1.0" encoding="UTF-8"?>
<svg xmlns="http://www.w3.org/2000/svg" width="800" height="500" viewBox="0 0 800 500" role="img" aria-label="Marketing">
  <defs>
    <linearGradient id="bg" x1="0" y1="0" x2="1" y2="1">
      <stop offset="0%" stop-color="#1c1917"/>
      <stop offset="55%" stop-color="#070f1c"/>
      <stop offset="100%" stop-color="#030712"/>
    </linearGradient>
    <linearGradient id="g" x1="0" y1="0" x2="1" y2="1">
      <stop offset="0%" stop-color="#38bdf8" stop-opacity="0.85"/>
      <stop offset="100%" stop-color="#38bdf8" stop-opacity="0.35"/>
    </linearGradient>
    <radialGradient id="glow" cx="70%" cy="20%" r="50%">
      <stop offset="0%" stop-color="#38bdf8" stop-opacity="0.28"/>
      <stop offset="100%" stop-color="#38bdf8" stop-opacity="0"/>
    </radialGradient>
  </defs>
  <rect width="800" height="500" fill="url(#bg)"/>
  <rect width="800" height="500" fill="url(#glow)"/>
  <circle cx="80" cy="420" r="120" fill="#38bdf8" fill-opacity="0.06"/>
  <circle cx="720" cy="60" r="90" fill="#38bdf8" fill-opacity="0.08"/>
  
      <path d="M220 240 L360 180 L360 300 Z" fill="#38bdf8" fill-opacity="0.75"/>
      <rect x="360" y="210" width="90" height="60" rx="10" fill="#0b1526" stroke="#38bdf8" stroke-width="3"/>
      <path d="M470 170c50 40 50 120 0 160M510 140c80 60 80 180 0 240" fill="none" stroke="#38bdf8" stroke-opacity="0.45" stroke-width="4" stroke-linecap="round"/>
      <circle cx="250" cy="320" r="18" fill="#38bdf8" fill-opacity="0.6"/>
    
  <rect x="0" y="420" width="800" height="80" fill="#030712" fill-opacity="0.55"/>
  <text x="40" y="468" fill="#38bdf8" font-family="Outfit, DM Sans, system-ui, sans-serif" font-size="22" font-weight="700" letter-spacing="0.04em">Marketing</text>
  <text x="760" y="468" text-anchor="end" fill="#94a3b8" font-family="Outfit, system-ui, sans-serif" font-size="13" font-weight="500">Ellines Tech</text>
</svg>
