<?xml version="1.0" encoding="UTF-8"?>
<svg xmlns="http://www.w3.org/2000/svg" width="800" height="500" viewBox="0 0 800 500" role="img" aria-label="E-commerce">
  <defs>
    <linearGradient id="bg" x1="0" y1="0" x2="1" y2="1">
      <stop offset="0%" stop-color="#134e4a"/>
      <stop offset="55%" stop-color="#070f1c"/>
      <stop offset="100%" stop-color="#030712"/>
    </linearGradient>
    <linearGradient id="g" x1="0" y1="0" x2="1" y2="1">
      <stop offset="0%" stop-color="#5eead4" stop-opacity="0.85"/>
      <stop offset="100%" stop-color="#38bdf8" stop-opacity="0.35"/>
    </linearGradient>
    <radialGradient id="glow" cx="70%" cy="20%" r="50%">
      <stop offset="0%" stop-color="#5eead4" stop-opacity="0.28"/>
      <stop offset="100%" stop-color="#5eead4" stop-opacity="0"/>
    </radialGradient>
  </defs>
  <rect width="800" height="500" fill="url(#bg)"/>
  <rect width="800" height="500" fill="url(#glow)"/>
  <circle cx="80" cy="420" r="120" fill="#5eead4" fill-opacity="0.06"/>
  <circle cx="720" cy="60" r="90" fill="#5eead4" fill-opacity="0.08"/>
  
      <rect x="180" y="130" width="440" height="260" rx="16" fill="#0b1526" stroke="#5eead4" stroke-opacity="0.4" stroke-width="2"/>
      <path d="M200 200h400M200 270h400M200 340h400M320 130v260M460 130v260" stroke="#5eead4" stroke-opacity="0.25" stroke-width="2"/>
      <rect x="230" y="155" width="60" height="30" rx="6" fill="#5eead4" fill-opacity="0.7"/>
      <rect x="370" y="225" width="60" height="30" rx="6" fill="#5eead4" fill-opacity="0.45"/>
      <rect x="510" y="295" width="60" height="30" rx="6" fill="#5eead4" fill-opacity="0.55"/>
    
  <rect x="0" y="420" width="800" height="80" fill="#030712" fill-opacity="0.55"/>
  <text x="40" y="468" fill="#5eead4" font-family="Outfit, DM Sans, system-ui, sans-serif" font-size="22" font-weight="700" letter-spacing="0.04em">E-commerce</text>
  <text x="760" y="468" text-anchor="end" fill="#94a3b8" font-family="Outfit, system-ui, sans-serif" font-size="13" font-weight="500">Ellines Tech</text>
</svg>
